@startuml "État des bandes"
' Définir le style global
skinparam {
    defaultFontColor ffffff
    backgroundColor 007acc
    ' #000000 = oui
    ' #007acc = oui
    ' #92cc00ff = non, donne blanc ou ignoré
    shadowing true
    ' oui
    FontName "Consolas"
    ArrowColor ffffff
    ' #ffffff
    ArrowFontColor ffffff
    ' #8598d6
    ' StartColor ff02c4
    ' #ff02c4ff = non, ignoré ou noir
    ' EndColor ff02c4
    ' #ff02c4 = non, ignoré ou noir
}
' Style pour les states
skinparam state {
    BackgroundColor 3e3e4e
    ' #3e3e4eff = non, ignoré ou blanc
    fontColor 007acc
    ' #007acc
    BorderThickness 2
    BorderColor 007acc
    ' #007acc
    FontName "Consolas"
    FontSize 12
    FontStyle bold
}

mainframe \n\t**État des bandes**\t\n

    state ATTENTE : affichage seul
    state SELECTION : effet de surbrillance actif
    state DEPLACEMENT : gauche/droite
    state CONTRAT : amortissement de la perte des fans

    [*] --> ATTENTE
    ATTENTE -> SELECTION : Choix d'une bande\n[souris ou arcade appuyé]
    SELECTION -> DEPLACEMENT : fleches\n\t[gauche/droite ou arcade]\t
    DEPLACEMENT --> SELECTION :immobilisation\n [animation déplacement terminée]
    SELECTION -> CONTRAT :ajout à la collection\n[fait partie du CONTRAT ?]
    CONTRAT -> [*]
@enduml

/'
Ajouter aux options prévues : 
en tout temps, si le joueur appuie sur un bouton 
qu'il n'est pas sensé utiliser le nombre de fan 
diminue de 10 par seconde ou la perte de fan est 
multipliée par x


git add .
git commit -m "test uml auto-export"
git fetch origin
git merge origin/main -m "merge avec le bot"
git push

<style>
mainframe {
  LineColor #007acc
  ' #007acc
  LineThickness 2.0
  FontColor 9ed1f3
  ' #9ed1f3ff
  FontSize 25
  FontStyle italic
  ' non
  Margin 50
  ' non
  Padding 100
  ' non
  backgroundColor #007acc
  ' 007acc = non, ignoré
  ' 000000ff = non, ignoré
  ' #000000 = non, ignoré
}
</style>

'/